<svg xmlns="http://www.w3.org/2000/svg" width="96" height="89" viewBox="0 0 96 89">
  <path fill="#61dafb" fill-rule="evenodd" d="M81.9365544,68.1778943 C77.0119047,75.2436971 70.936476,80.5563513 63.7100871,84.1160171 C56.4836982,87.6756822 49.6990238,89.1610843 43.3558602,88.5722679 C37.0126966,87.9834508 31.9275363,85.1330843 28.1002266,80.0210835 C24.2729169,74.9090828 23.3495588,67.160904 25.3301247,56.7763156 C25.9724704,53.4575296 26.2668744,50.3796694 26.2133456,47.5426426 C26.1598168,46.8467681 26.0259968,45.9635561 25.8118816,44.8929799 C25.5977663,43.8224038 25.0357223,43.3674158 24.1257326,43.5280022 C14.2764322,45.0803376 6.46134367,49.7640379 0.680232558,57.5792437 C1.96492391,53.5645831 3.27636,49.5767469 4.61458017,45.6156152 C5.95280033,41.6544835 7.42482043,37.7469392 9.03068465,33.8928652 C12.0282978,31.1628961 15.347034,28.7541359 18.9869929,26.6665124 C22.6269517,24.578889 26.935956,23.1336329 31.914135,22.3307008 C33.8947009,22.1165856 34.8849689,22.9462696 34.8849689,24.8197779 C34.7243825,28.5667943 34.1757205,32.8222706 33.2389663,37.5863344 C32.3022122,42.3503981 32.0479542,46.8467504 32.4761846,51.0755262 C33.0650015,57.8736846 35.5808177,62.1826889 40.0237087,64.0026684 C44.4665996,65.8226477 49.5116139,66.1973438 55.158903,65.1267676 C60.8061921,64.0561915 66.4400145,62.0488914 72.0605392,59.104807 C77.6810642,56.1607227 81.9900681,53.2969744 84.9876815,50.5134765 C84.9876815,48.3187955 84.8672432,45.6423953 84.6263635,42.4841957 C84.3854839,39.3259961 83.729766,36.970764 82.6591896,35.4184286 C79.9292205,36.0607743 77.0520908,36.2615042 74.027713,36.0206246 C71.0033354,35.779745 68.7953053,34.8563869 67.4035563,33.2505227 C65.0482888,30.68114 64.9679968,27.3356398 67.1626779,23.2139217 C68.9291285,19.6810204 70.6420246,16.0143522 72.3014176,12.213807 C73.9608106,8.41326169 76.1019304,5.04099745 78.7248424,2.09691309 C80.0095338,0.651635314 81.5752275,0.276939289 83.4219713,0.972813775 C85.2687152,1.66868826 86.7005894,2.49837232 87.7176365,3.46189084 C95.3187274,11.2235678 97.6471955,21.9291685 94.7031114,35.5790142 C91.7590266,49.2288598 87.5035505,60.0950445 81.9365544,68.1778943 Z"/>
</svg>
